<svg data-v-423bf9ae="" xmlns="http://www.w3.org/2000/svg" viewBox="0 0 899 641" class="iconLeft"><!----><!----><!----><g data-v-423bf9ae="" id="72ea5222-6cba-4f53-b7f5-7d6b96c0f063" fill="black" transform="matrix(6.1224488604322,0,0,6.1224488604322,636.3564393420061,285.75340338576984)"><path d="M0.98 0.70L2.79 0.70L2.79 0.70Q3.25 0.70 3.58 1.04L3.58 1.04L3.58 1.04Q3.91 1.37 3.91 1.83L3.91 1.83L3.91 9.39L3.91 9.39Q3.91 9.84 3.58 10.17L3.58 10.17L3.58 10.17Q3.25 10.50 2.79 10.50L2.79 10.50L0.94 10.50L0 10.50L0 0.70L0.98 0.70ZM2.93 9.39L2.93 1.83L2.93 1.83Q2.93 1.69 2.79 1.69L2.79 1.69L0.98 1.69L0.98 9.52L2.79 9.52L2.79 9.52Q2.93 9.52 2.93 9.39L2.93 9.39ZM8.34 1.68L5.80 1.68L5.80 4.62L7.84 4.62L7.84 5.60L5.80 5.60L5.80 9.52L8.34 9.52L8.34 10.50L4.82 10.50L4.82 4.62L5.80 4.62L4.82 1.68L4.82 0.70L8.34 0.70L8.34 1.68ZM10.23 9.51L12.78 9.51L12.78 10.50L9.25 10.50L9.25 9.51L9.25 0.70L10.23 0.70L10.23 9.51ZM14.69 0.70L14.69 10.50L13.71 10.50L13.71 0.70L14.69 0.70ZM19.08 0.70L20.08 0.70L18.51 10.50L17.16 10.50L15.60 0.70L16.59 0.70L17.84 8.54L19.08 0.70ZM24.44 1.68L21.90 1.68L21.90 4.62L23.94 4.62L23.94 5.60L21.90 5.60L21.90 9.52L24.44 9.52L24.44 10.50L20.92 10.50L20.92 4.62L21.90 4.62L20.92 1.68L20.92 0.70L24.44 0.70L24.44 1.68ZM25.35 10.50L25.35 4.62L26.33 4.62L26.33 10.50L25.35 10.50ZM25.35 0.70L28.18 0.70L28.18 0.70Q28.63 0.70 28.96 1.03L28.96 1.03L28.96 1.03Q29.29 1.36 29.29 1.82L29.29 1.82L29.29 4.48L29.29 4.48Q29.29 4.94 28.96 5.27L28.96 5.27L28.96 5.27Q28.63 5.60 28.18 5.60L28.18 5.60L27.83 5.60L29.29 10.50L28.24 10.50L26.54 4.62L28.18 4.62L28.18 4.62Q28.31 4.62 28.31 4.48L28.31 4.48L28.31 1.82L28.31 1.82Q28.31 1.68 28.18 1.68L28.18 1.68L26.33 1.68L26.33 4.62L25.35 1.68L25.35 0.70ZM33.75 5.60L32.48 5.60L31.23 9.52L33.74 9.52L33.74 10.50L30.20 10.50L30.20 9.52L31.46 5.60L30.20 5.60L30.20 4.62L31.77 4.62L32.70 1.68L30.20 1.68L30.20 0.70L33.74 0.70L33.74 1.68L32.80 4.62L33.75 4.62L33.75 5.60ZM38.19 1.68L35.64 1.68L35.64 4.62L37.69 4.62L37.69 5.60L35.64 5.60L35.64 9.52L38.19 9.52L38.19 10.50L34.66 10.50L34.66 4.62L35.64 4.62L34.66 1.68L34.66 0.70L38.19 0.70L38.19 1.68ZM42.87 2.86L41.89 2.86L41.89 1.81L41.89 1.81Q41.89 1.67 41.75 1.67L41.75 1.67L40.22 1.67L40.22 1.67Q40.08 1.67 40.08 1.81L40.08 1.81L40.08 4.47L40.08 4.47Q40.08 4.56 40.17 4.59L40.17 4.59L41.75 4.59L41.75 4.59Q42.22 4.59 42.55 4.92L42.55 4.92L42.55 4.92Q42.87 5.25 42.87 5.71L42.87 5.71L42.87 9.39L42.87 9.39Q42.87 9.81 42.60 10.12L42.60 10.12L42.60 10.12Q42.34 10.43 41.93 10.50L41.93 10.50L40.04 10.50L40.04 10.50Q39.63 10.43 39.37 10.12L39.37 10.12L39.37 10.12Q39.10 9.81 39.10 9.39L39.10 9.39L39.10 8.34L40.08 8.34L40.08 9.39L40.08 9.39Q40.08 9.53 40.22 9.53L40.22 9.53L41.75 9.53L41.75 9.53Q41.89 9.53 41.89 9.39L41.89 9.39L41.89 5.71L41.89 5.71Q41.89 5.61 41.80 5.59L41.80 5.59L40.22 5.59L40.22 5.59Q39.76 5.59 39.43 5.26L39.43 5.26L39.43 5.26Q39.10 4.93 39.10 4.47L39.10 4.47L39.10 1.81L39.10 1.81Q39.10 1.39 39.37 1.08L39.37 1.08L39.37 1.08Q39.63 0.77 40.04 0.70L40.04 0.70L41.93 0.70L41.93 0.70Q42.34 0.77 42.60 1.08L42.60 1.08L42.60 1.08Q42.87 1.39 42.87 1.81L42.87 1.81L42.87 2.86Z"></path></g><!----><g data-v-423bf9ae="" id="a4d019e6-cf2b-415c-a8ee-469a8d925346" transform="matrix(2.666829596625434,0,0,2.666829596625434,0.8217607379438618,6.747371925739458)" stroke="none" fill="black"><path d="M72.422 6.331c-8.929-8.641-23.17-8.407-31.812.519-8.64 8.926-8.407 23.17.523 31.809 8.928 8.639 23.167 8.406 31.809-.521a22.396 22.396 0 0 0 6.269-14.183 166.234 166.234 0 0 0-9.388-2.375c-8.195-1.801-15.479-3.917-20.563-5.86 4.925 1.138 11.166 2.199 17.996 2.987 8.539.986 16.285 1.35 21.751 1.134 4.923-.195 7.997-.86 8.125-1.966.206-1.798-7.43-4.235-18.368-6.117a183.11 183.11 0 0 0-2.456-.404 22.51 22.51 0 0 0-3.886-5.023zM29.041 177.994c0 12.013-1.575 26.554-6.122 43.682-1.771 6.672 2.202 13.519 8.874 15.289a12.5 12.5 0 0 0 3.217.422c5.531 0 10.588-3.698 12.073-9.296 5.083-19.141 6.96-35.889 6.96-50.097.004-8.462-.666-15.997-1.698-22.61H26.976c1.195 6.166 2.061 13.703 2.065 22.61zM26.976 89.079c.045-12.896 4.346-22.235 6.191-25.655l.059-.107c1.819-3.176 5.146-5.105 8.724-5.105 1.735 0 3.452.458 4.964 1.324 4.784 2.742 6.446 8.862 3.707 13.647-.088.178-.22.432-.381.783-.32.69-.804 1.819-1.299 3.294-.898 2.66-1.968 6.869-1.963 11.819a33.389 33.389 0 0 0 1.588 10.248c2.098-7.084 4.555-13.821 6.661-19.706 9.229 7.598 23.76 14.73 44.076 14.731h.193c1.33 0 2.693-.041 4.071-.102l-2.311-2.602 14.424-12.807a7.966 7.966 0 0 0-5.383-1.222c-3.868.506-7.461.731-10.802.731-17.561-.05-28.284-6.071-35.121-11.939-3.303-2.867-5.612-5.729-7.081-7.855-.662-1.729-1.565-3.289-2.729-4.57a7.994 7.994 0 0 0-5.445-3.35c-8.158-2.47-20.027.765-26.708 13.755-6.974 13.749-10.632 24.26-12.363 37.492H28.53a53.554 53.554 0 0 1-1.554-12.804zM78.502 153.384l-.002-49.501H50.394c2.649 5.504 6.701 10.542 12.399 15.364a9.94 9.94 0 0 1 3.507 6.802 9.941 9.941 0 0 1-2.331 7.292 9.986 9.986 0 0 1-7.638 3.544h-.001a10.013 10.013 0 0 1-6.449-2.365c-8.177-6.901-14.26-14.69-18.083-23.152a54.502 54.502 0 0 1-2.742-7.485H0v49.501h78.502z"></path><path d="M33.619 110.545c3.432 7.592 9.077 15.294 17.551 22.449a7.971 7.971 0 0 0 5.161 1.891 7.98 7.98 0 0 0 6.113-2.837 7.998 7.998 0 0 0-.942-11.273c-6.856-5.805-10.889-11.507-13.306-16.828-2.406-5.326-3.214-10.34-3.218-14.865-.005-5.01 1.031-9.395 2.065-12.459a34.788 34.788 0 0 1 1.381-3.497 20.774 20.774 0 0 1 .462-.937 8.002 8.002 0 0 0-2.967-10.918 7.998 7.998 0 0 0-10.916 2.967h-.002c-.363.7-5.973 10.45-6.025 24.844a51.792 51.792 0 0 0 4.643 21.463z"></path><ellipse transform="rotate(-13.109 182.25 24.74)" cx="182.254" cy="24.739" rx="22.495" ry="22.494"></ellipse><path d="M203.936 57.381c1.188 0 2.357.212 3.48.628 5.169 1.923 7.811 7.689 5.893 12.856-.882 2.262-4.259 9.962-12.07 17.749a54.595 54.595 0 0 1-8.138 6.7c1.463 9.526 2.304 19.607 1.063 28.86-.01.17-.016.33-.024.496-3.364 9.395-8.919 28.526-8.951 52.9 0 15.654 2.342 33.489 9.207 52.013 1.867 5.041 6.642 8.16 11.721 8.16 1.443 0 2.911-.252 4.344-.783 6.474-2.398 9.777-9.589 7.377-16.063-5.686-15.35-7.645-30.146-7.645-43.327-.005-14.411 2.367-26.859 4.723-35.589.355-1.322.71-2.546 1.057-3.69 6.234-1.639 11.856-5.942 13.947-16.701 2.586-22.217 1.123-35.348-5.682-55.521-5.035-14.643-17.41-19.277-25.947-17.15-8.465 2.111-12.224 13.845-9.485 23.746 4.023-4.546 5.75-8.748 5.769-8.797 1.472-3.892 5.231-6.487 9.361-6.487zM120.897 110.76l14.386-12.772a9.925 9.925 0 0 1-.482-5.068 9.958 9.958 0 0 1 9.855-8.369c.547 0 1.098.046 1.641.135 1.154.191 2.295.345 3.427.48l5.075-4.506-16.82-18.942-33.9 30.098 16.818 18.944zm4.889-15.175l-.996-1.121 8.226-7.305.996 1.122-8.226 7.304zm-2.531-2.852l-.996-1.121 13.366-11.868.996 1.122-13.366 11.867zm14.481-28.544l4.98 5.608-4.86 4.315-4.979-5.608 4.859-4.315zm-4.642 12.704l.996 1.121-13.366 11.869-.996-1.123 13.366-11.867z"></path><path d="M145.972 86.659a8 8 0 0 0-2.606 15.786c4.993.826 9.696 1.209 14.118 1.209h.246c19.995.001 33.897-8.21 42.099-16.457 8.305-8.279 11.336-16.345 11.605-17.027a8 8 0 0 0-4.714-10.285 7.998 7.998 0 0 0-10.264 4.663l-.002-.001-.02.053c-.242.619-2.74 6.38-8.444 11.792-6.034 5.661-15.168 11.198-30.507 11.262-3.497-.001-7.324-.302-11.511-.995z"></path></g><!----></svg>